<?xml version="1.0" encoding="utf-8"?>
<!-- Generator: Adobe Illustrator 25.4.1, SVG Export Plug-In . SVG Version: 6.00 Build 0)  -->
<svg version="1.1" id="Layer_1" xmlns="http://www.w3.org/2000/svg" xmlns:xlink="http://www.w3.org/1999/xlink" x="0px" y="0px"
	 viewBox="0 0 503.1 503.9" style="enable-background:new 0 0 503.1 503.9;" xml:space="preserve">
<style type="text/css">
	.st0{fill:#FFFFFF;}
	.st1{fill:none;stroke:#F0C41B;stroke-width:11.7896;stroke-linecap:round;stroke-linejoin:round;stroke-miterlimit:10;}
	.st2{fill:#1A5EA1;stroke:#1A5EA1;stroke-width:1.2946;stroke-miterlimit:10;}
	.st3{font-family:'Silom';}
	.st4{font-size:129.1569px;}
	.st5{fill:none;stroke:#1A5EA2;stroke-width:11.7896;stroke-linejoin:round;stroke-miterlimit:10;}
	.st6{fill:none;stroke:#1A5EA2;stroke-width:11.7896;stroke-linecap:round;stroke-linejoin:round;stroke-miterlimit:10;}
	.st7{fill:none;}
	.st8{fill:#F1C418;}
	.st9{fill:#1A5EA1;}
	.st10{stroke:#1A5EA2;stroke-width:11.7896;stroke-linecap:round;stroke-linejoin:round;stroke-miterlimit:10;}
</style>
<circle class="st0" cx="252" cy="252" r="252"/>
<g>
	<path class="st1" d="M211.1,293.5 M211.1,305.8v-12.3 M252,390.8c0,0-11.6-3.3-19.5-8.8c-4.7-3.3-8.6-7.7-8.6-7.7
		s-7.2-7.9-10.9-20.5c-3.7-12.6-1.9-48-1.9-48"/>
	<text transform="matrix(1 0 0 1 92.2394 235.0493)" class="st2 st3 st4">all</text>
	<text transform="matrix(1 0 0 1 259.2154 235.0493)" class="st2 st3 st4">4</text>
	<line class="st5" x1="210.7" y1="253.3" x2="210.7" y2="313.8"/>
	<path class="st6" d="M296.7,133.2c-9.1-5.4-18.6-10-28.4-13.7l0,0c-0.1,0-0.3-0.1-0.4-0.1c-2-0.8-4.1-1.5-6.1-2.2
		c-0.7-0.2-1.5-0.5-2.2-0.7c-1.5-0.5-3-0.9-4.4-1.4c-0.9-0.3-1.8-0.5-2.6-0.7c-1.4-0.4-2.7-0.7-4.1-1.1c-0.9-0.2-1.9-0.4-2.8-0.7
		c-1.3-0.3-2.7-0.6-4-0.9c-1-0.2-1.9-0.4-2.9-0.6c-1.4-0.2-2.7-0.5-4.1-0.7c-1-0.1-1.9-0.3-2.9-0.4c-1.4-0.2-2.8-0.4-4.2-0.5
		c-0.9-0.1-1.8-0.2-2.8-0.3c-1.6-0.1-3.1-0.2-4.7-0.3c-0.8,0-1.6-0.1-2.3-0.1c-2.3-0.1-4.7-0.2-7.1-0.2c0,0,0,0,0,0c0,0,0,0,0,0
		c0,0,0,0,0,0c0,0,0,0,0,0c-2.4,0-4.7,0.1-7.1,0.2c-0.8,0-1.6,0.1-2.3,0.1c-1.6,0.1-3.1,0.2-4.7,0.3c-0.9,0.1-1.8,0.2-2.8,0.3
		c-1.4,0.2-2.8,0.3-4.2,0.5c-1,0.1-1.9,0.3-2.9,0.4c-1.4,0.2-2.7,0.4-4.1,0.7c-1,0.2-1.9,0.4-2.9,0.6c-1.3,0.3-2.7,0.6-4,0.9
		c-0.9,0.2-1.9,0.4-2.8,0.7c-1.4,0.3-2.7,0.7-4.1,1.1c-0.9,0.2-1.8,0.5-2.6,0.7c-1.5,0.4-3,0.9-4.5,1.4c-0.7,0.2-1.5,0.4-2.2,0.7
		c-2.1,0.7-4.1,1.4-6.1,2.2c-0.1,0-0.3,0.1-0.4,0.1l0,0c-19.7,7.5-38,18.5-54.1,32.1l-0.1,0.1c-0.3,0.3-0.7,0.6-1,0.9
		c-0.5,0.4-0.9,0.8-1.3,1.2c-1.1,1-2.2,2-3.3,3c-0.4,0.3-0.8,0.7-1.1,1c-1.4,1.3-2.9,2.7-4.2,4.1c-0.2,0.2-0.5,0.5-0.7,0.7
		c-1.2,1.2-2.3,2.3-3.4,3.5c-0.4,0.4-0.8,0.9-1.2,1.3c-1,1.1-2,2.2-3,3.3c-0.3,0.4-0.7,0.8-1,1.2c-1.3,1.5-2.6,2.9-3.8,4.4
		c-0.2,0.3-0.5,0.6-0.7,0.8c-1,1.2-2,2.5-3,3.8c-0.4,0.5-0.7,1-1.1,1.5c-0.9,1.2-1.8,2.3-2.6,3.5c-0.3,0.4-0.6,0.8-0.9,1.3
		c-1.1,1.6-2.2,3.2-3.3,4.7c-0.2,0.3-0.4,0.6-0.6,0.9c-0.9,1.3-1.7,2.7-2.6,4c-0.3,0.5-0.7,1-1,1.6c-0.8,1.2-1.5,2.5-2.2,3.7
		c-0.3,0.5-0.5,0.9-0.8,1.4c-1,1.7-1.9,3.3-2.8,5c-0.2,0.3-0.3,0.7-0.5,1c-0.7,1.4-1.4,2.8-2.1,4.2c-0.3,0.6-0.5,1.1-0.8,1.7
		c-0.6,1.3-1.2,2.6-1.8,3.9c-0.2,0.3-0.3,0.7-0.5,1c-0.1,0.2-0.2,0.4-0.2,0.6c-0.2,0.5-0.5,1-0.7,1.6c-0.4,0.9-0.8,1.8-1.1,2.6
		c-0.2,0.6-0.4,1.1-0.7,1.7c-0.3,0.9-0.7,1.7-1,2.6c-0.2,0.6-0.4,1.1-0.6,1.7c-0.3,0.9-0.6,1.7-0.9,2.6c-0.2,0.6-0.4,1.1-0.6,1.7
		c-0.3,0.9-0.6,1.8-0.9,2.7c-0.2,0.5-0.3,1.1-0.5,1.6c-0.3,1-0.6,2-0.9,3c-0.1,0.4-0.3,0.9-0.4,1.3c-0.8,2.9-1.6,5.8-2.2,8.8
		c-0.1,0.5-0.2,0.9-0.3,1.4c-0.2,1-0.4,2-0.6,3c-0.1,0.6-0.2,1.1-0.3,1.7c-0.2,0.9-0.3,1.8-0.5,2.8c-0.1,0.6-0.2,1.2-0.3,1.8
		c-0.1,0.9-0.3,1.8-0.4,2.7c-0.1,0.6-0.2,1.2-0.2,1.8c-0.1,0.9-0.2,1.8-0.3,2.7c-0.1,0.6-0.1,1.2-0.2,1.8c-0.1,0.9-0.2,1.8-0.2,2.8
		c0,0.6-0.1,1.2-0.1,1.7c-0.1,1-0.1,2-0.1,3c0,0.5,0,1-0.1,1.5c0,1.5-0.1,3-0.1,4.5c10.1-20.4,36.3-34.2,58.9-34.2
		c22.6,0,48.6,13.8,58.7,34.2c10.1-20.4,38-34.2,60.6-34.2"/>
	<path class="st7" d="M284.3,339.7c8.1,0,12.1-4.2,12.1-12.6v-12.6h-24.2v12.6C272.2,335.5,276.2,339.7,284.3,339.7z"/>
	<path class="st8" d="M296.4,327.1c0,8.4-4,12.6-12.1,12.6c-8.1,0-12.1-4.2-12.1-12.6v-12.6h-40.9v13.2c0,7.7,1.3,14.4,3.9,20
		c2.6,5.6,6.2,10.3,10.9,14c4.6,3.7,10.2,6.4,16.8,8.2c6.5,1.7,13.7,2.6,21.6,2.6c7.7,0,14.9-0.9,21.3-2.6c6.5-1.7,12-4.5,16.7-8.2
		c4.6-3.7,8.3-8.4,10.9-14c2.6-5.6,3.9-12.3,3.9-20v-13.2h-40.9V327.1z"/>
	<path class="st9" d="M336,257.8c-0.9-0.9-1.9-1.3-3.1-1.3h-32c-1.2,0-2.2,0.4-3.1,1.3c-0.9,0.9-1.3,1.9-1.3,3.1v53.6h40.9v-53.6
		C337.3,259.7,336.8,258.7,336,257.8z"/>
	<path class="st9" d="M272.2,260.9c0-1.2-0.4-2.2-1.3-3.1c-0.9-0.9-1.9-1.3-3.1-1.3h-32c-1.2,0-2.2,0.4-3.1,1.3
		c-0.9,0.9-1.3,1.9-1.3,3.1v53.6h40.9V260.9z"/>
	<path class="st7" d="M402.7,288.6c-8.1,0-12.1,4.2-12.1,12.6v12.6h24.2v-12.6C414.8,292.8,410.8,288.6,402.7,288.6z"/>
	<path class="st9" d="M390.6,301.2c0-8.4,4-12.6,12.1-12.6c8.1,0,12.1,4.2,12.1,12.6v12.6h40.9v-13.2c0-7.7-1.3-14.4-3.9-20
		c-2.6-5.6-6.2-10.3-10.9-14c-4.6-3.7-10.2-6.4-16.8-8.2c-6.5-1.7-13.7-2.6-21.6-2.6c-7.7,0-14.9,0.9-21.3,2.6
		c-6.5,1.7-12,4.5-16.7,8.2c-4.6,3.7-8.3,8.4-10.9,14c-2.6,5.6-3.9,12.3-3.9,20v13.2h40.9V301.2z"/>
	<path class="st8" d="M351.1,370.5c0.9,0.9,1.9,1.3,3.1,1.3h32c1.2,0,2.2-0.4,3.1-1.3c0.9-0.9,1.3-1.9,1.3-3.1v-53.6h-40.9v53.6
		C349.8,368.6,350.2,369.6,351.1,370.5z"/>
	<path class="st8" d="M414.8,367.4c0,1.2,0.4,2.2,1.3,3.1c0.9,0.9,1.9,1.3,3.1,1.3h32c1.2,0,2.2-0.4,3.1-1.3
		c0.9-0.9,1.3-1.9,1.3-3.1v-53.6h-40.9V367.4z"/>
	<path class="st8" d="M382.3,323.9c0,0.2,0.4,0.4,1.3,0.6c0.9,0.2,1.9,0.3,3.1,0.3h32c1.2,0,2.2-0.1,3.1-0.3
		c0.9-0.2,1.3-0.4,1.3-0.6v-10.3h-40.9V323.9z"/>
	<path class="st9" d="M422,307c0-0.2-0.4-0.3-1.3-0.4c-0.9-0.1-1.9-0.2-3.1-0.2h-32c-1.2,0-2.2,0.1-3.1,0.2
		c-0.9,0.1-1.3,0.2-1.3,0.4v6.8H422V307z"/>
</g>
<line class="st10" x1="210.7" y1="97" x2="210.7" y2="107.5"/>
</svg>
